<svg xmlns="http://www.w3.org/2000/svg" width="404" height="348" viewBox="0 0 404 348" fill="#003b5c">
<defs><clipPath id="clip60"><path id="Vector" d="M16.0788 323.037L189.89 94.7657C197.974 84.1457 213.992 84.3243 221.838 95.1232L387.447 323.037C387.447 323.037 293.609 341.831 201.763 346.531C109.919 351.229 16.0788 323.037 16.0788 323.037Z" fill="#003b5c" /></clipPath></defs><g id="Imagem1 1">
<g id="Group">
<path id="Vector" d="M16.0788 323.037L189.89 94.7657C197.974 84.1457 213.992 84.3243 221.838 95.1232L387.447 323.037C387.447 323.037 293.609 341.831 201.763 346.531C109.919 351.229 16.0788 323.037 16.0788 323.037Z" fill="#003b5c" />
<path id="Vector_2" d="M215.594 64.366C215.594 66.8962 213.546 68.9472 211.02 68.9472C208.493 68.9472 206.447 66.8962 206.447 64.366C206.447 61.837 208.493 59.7849 211.02 59.7849C213.546 59.7849 215.594 61.837 215.594 64.366Z" fill="#003b5c" />
<path id="Vector_3" d="M198.442 73.5288C198.442 76.059 196.394 78.1099 193.867 78.1099C191.34 78.1099 189.292 76.059 189.292 73.5288C189.292 70.998 191.34 68.9472 193.867 68.9472C196.394 68.9472 198.442 70.998 198.442 73.5288Z" fill="#003b5c" />
<path id="Vector_4" d="M186.721 106.737C186.721 109.268 184.672 111.319 182.145 111.319C179.62 111.319 177.571 109.268 177.571 106.737C177.571 104.207 179.62 102.156 182.145 102.156C184.672 102.156 186.721 104.207 186.721 106.737Z" fill="#003b5c" />
<path id="Vector_5" d="M190.472 88.8083C190.472 91.3379 188.423 93.3897 185.897 93.3897C183.371 93.3897 181.325 91.3379 181.325 88.8083C181.325 86.2786 183.371 84.2276 185.897 84.2276C188.423 84.2276 190.472 86.2786 190.472 88.8083Z" fill="#003b5c" />
<path id="Vector_6" d="M91.9479 225.118C91.9479 227.647 89.8999 229.698 87.3729 229.698C84.8459 229.698 82.8009 227.647 82.8009 225.118C82.8009 222.586 84.8459 220.536 87.3729 220.536C89.8999 220.536 91.9479 222.586 91.9479 225.118Z" fill="#003b5c" />
<path id="Vector_7" d="M31.4829 306.28C31.4829 308.81 29.4349 310.862 26.9082 310.862C24.3816 310.862 22.3336 308.81 22.3336 306.28C22.3336 303.751 24.3816 301.7 26.9082 301.7C29.4349 301.7 31.4829 303.751 31.4829 306.28Z" fill="#003b5c" />
<path id="Vector_8" d="M26.9077 314.332C26.9077 316.862 24.8596 318.913 22.333 318.913C19.8069 318.913 17.7611 316.862 17.7611 314.332C17.7611 311.802 19.8069 309.751 22.333 309.751C24.8596 309.751 26.9077 311.802 26.9077 314.332Z" fill="#003b5c" />
<path id="Vector_9" d="M19.6184 320.237C19.6184 322.767 17.5704 324.818 15.0432 324.818C12.5177 324.818 10.4719 322.767 10.4719 320.237C10.4719 317.708 12.5177 315.656 15.0432 315.656C17.5704 315.656 19.6184 317.708 19.6184 320.237Z" fill="#003b5c" />
<path id="Vector_10" d="M31.4829 323.492C31.4829 326.023 29.4349 328.074 26.9082 328.074C24.3816 328.074 22.3336 326.023 22.3336 323.492C22.3336 320.962 24.3816 318.911 26.9082 318.911C29.4349 318.911 31.4829 320.962 31.4829 323.492Z" fill="#003b5c" />
<path id="Vector_11" d="M26.9077 323.492C26.9077 326.023 24.8596 328.074 22.333 328.074C19.8069 328.074 17.7611 326.023 17.7611 323.492C17.7611 320.962 19.8069 318.911 22.333 318.911C24.8596 318.911 26.9077 320.962 26.9077 323.492Z" fill="#003b5c" />
<path id="Vector_12" d="M38.7719 324.817C38.7719 327.348 36.7239 329.399 34.1979 329.399C31.6719 329.399 29.6262 327.348 29.6262 324.817C29.6262 322.288 31.6719 320.237 34.1979 320.237C36.7239 320.237 38.7719 322.288 38.7719 324.817Z" fill="#003b5c" />
<path id="Vector_13" d="M9.184 321.812C9.184 324.342 7.1359 326.393 4.6093 326.393C2.0827 326.393 0.0339966 324.342 0.0339966 321.812C0.0339966 319.282 2.0827 317.231 4.6093 317.231C7.1359 317.231 9.184 319.282 9.184 321.812Z" fill="#003b5c" />
<path id="Vector_14" d="M15.6166 326.393C15.6166 328.922 13.5674 330.973 11.0413 330.973C8.5147 330.973 6.4666 328.922 6.4666 326.393C6.4666 323.862 8.5147 321.81 11.0413 321.81C13.5674 321.81 15.6166 323.862 15.6166 326.393Z" fill="#003b5c" />
<path id="Vector_15" d="M377.407 301.7C377.407 304.23 375.358 306.282 372.833 306.282C370.306 306.282 368.26 304.23 368.26 301.7C368.26 299.17 370.306 297.12 372.833 297.12C375.358 297.12 377.407 299.17 377.407 301.7Z" fill="#003b5c" />
<path id="Vector_16" d="M384.268 310.862C384.268 313.391 382.22 315.442 379.693 315.442C377.167 315.442 375.122 313.391 375.122 310.862C375.122 308.331 377.167 306.279 379.693 306.279C382.22 306.279 384.268 308.331 384.268 310.862Z" fill="#003b5c" />
<path id="Vector_17" d="M341.243 330.327C341.243 332.857 339.194 334.908 336.668 334.908C334.142 334.908 332.094 332.857 332.094 330.327C332.094 327.797 334.142 325.747 336.668 325.747C339.194 325.747 341.243 327.797 341.243 330.327Z" fill="#003b5c" />
<path id="Vector_18" d="M368.831 325.747C368.831 328.277 366.783 330.328 364.257 330.328C361.73 330.328 359.682 328.277 359.682 325.747C359.682 323.217 361.73 321.165 364.257 321.165C366.783 321.165 368.831 323.217 368.831 325.747Z" fill="#003b5c" />
<path id="Vector_19" d="M385.411 323.602C385.411 326.132 383.363 328.183 380.836 328.183C378.31 328.183 376.265 326.132 376.265 323.602C376.265 321.072 378.31 319.017 380.836 319.017C383.363 319.017 385.411 321.072 385.411 323.602Z" fill="#003b5c" />
<path id="Vector_20" d="M377.407 324.316C377.407 326.844 375.358 328.899 372.833 328.899C370.306 328.899 368.26 326.844 368.26 324.316C368.26 321.785 370.306 319.734 372.833 319.734C375.358 319.734 377.407 321.785 377.407 324.316Z" fill="#003b5c" />
<path id="Vector_21" d="M389.986 318.305C389.986 320.835 387.937 322.888 385.411 322.888C382.884 322.888 380.839 320.835 380.839 318.305C380.839 315.776 382.884 313.721 385.411 313.721C387.937 313.721 389.986 315.776 389.986 318.305Z" fill="#003b5c" />
<path id="Vector_22" d="M403.853 321.74C403.853 324.27 401.803 326.321 399.278 326.321C396.751 326.321 394.703 324.27 394.703 321.74C394.703 319.21 396.751 317.16 399.278 317.16C401.803 317.16 403.853 319.21 403.853 321.74Z" fill="#003b5c" />
<path id="Vector_23" d="M232.498 103.839C232.498 106.369 230.45 108.421 227.923 108.421C225.397 108.421 223.349 106.369 223.349 103.839C223.349 101.309 225.397 99.2579 227.923 99.2579C230.45 99.2579 232.498 101.309 232.498 103.839Z" fill="#003b5c" />
<path id="Vector_24" d="M242.505 120.873C242.505 123.404 240.457 125.455 237.93 125.455C235.403 125.455 233.355 123.404 233.355 120.873C233.355 118.344 235.403 116.293 237.93 116.293C240.457 116.293 242.505 118.344 242.505 120.873Z" fill="#003b5c" />
<path id="Vector_25" d="M208.947 85.1234C208.947 87.6527 206.899 89.7046 204.373 89.7046C201.846 89.7046 199.801 87.6527 199.801 85.1234C199.801 82.5932 201.846 80.5423 204.373 80.5423C206.899 80.5423 208.947 82.5932 208.947 85.1234Z" fill="#003b5c" />
<path id="Vector_26" d="M215.594 75.9607C215.594 78.4902 213.546 80.5423 211.02 80.5423C208.493 80.5423 206.447 78.4902 206.447 75.9607C206.447 73.4305 208.493 71.3796 211.02 71.3796C213.546 71.3796 215.594 73.4305 215.594 75.9607Z" fill="#003b5c" />
<path id="Vector_27" d="M205.303 66.8002C205.303 69.3303 203.255 71.3813 200.728 71.3813C198.202 71.3813 196.153 69.3303 196.153 66.8002C196.153 64.2699 198.202 62.2191 200.728 62.2191C203.255 62.2191 205.303 64.2699 205.303 66.8002Z" fill="#003b5c" />
<path id="Vector_28" d="M218.096 51.77C218.096 54.3002 216.047 56.351 213.521 56.351C210.994 56.351 208.948 54.3002 208.948 51.77C208.948 49.2409 210.994 47.1889 213.521 47.1889C216.047 47.1889 218.096 49.2409 218.096 51.77Z" fill="#003b5c" />
<path id="Vector_29" d="M224.743 71.3807C224.743 73.9097 222.695 75.9618 220.168 75.9618C217.642 75.9618 215.594 73.9097 215.594 71.3807C215.594 68.8505 217.642 66.7996 220.168 66.7996C222.695 66.7996 224.743 68.8505 224.743 71.3807Z" fill="#003b5c" />
<path id="Vector_30" d="M227.245 80.5423C227.245 83.0724 225.197 85.1234 222.67 85.1234C220.144 85.1234 218.096 83.0724 218.096 80.5423C218.096 78.0126 220.144 75.9607 222.67 75.9607C225.197 75.9607 227.245 78.0126 227.245 80.5423Z" fill="#003b5c" />
<path id="Vector_31" d="M220.168 86.9115C220.168 89.4412 218.119 91.4931 215.594 91.4931C213.067 91.4931 211.021 89.4412 211.021 86.9115C211.021 84.3814 213.067 82.3304 215.594 82.3304C218.119 82.3304 220.168 84.3814 220.168 86.9115Z" fill="#003b5c" />
<path id="Vector_32" d="M204.374 58.5687C204.374 61.0984 202.326 63.1499 199.799 63.1499C197.272 63.1499 195.228 61.0984 195.228 58.5687C195.228 56.0385 197.272 53.9876 199.799 53.9876C202.326 53.9876 204.374 56.0385 204.374 58.5687Z" fill="#003b5c" />
<path id="Vector_33" d="M202.309 44.8605C204.818 45.1628 206.606 47.4449 206.303 49.9559C206.004 52.4685 203.725 54.2589 201.217 53.956C198.709 53.6525 196.921 51.3716 197.22 48.8595C197.522 46.348 199.801 44.5575 202.309 44.8605Z" fill="#003b5c" />
<path id="Vector_34" d="M211.567 30.4735C214.075 30.777 215.863 33.0579 215.561 35.57C215.261 38.0821 212.983 39.8725 210.474 39.5701C207.966 39.2667 206.178 36.9846 206.478 34.4737C206.78 31.961 209.058 30.1706 211.567 30.4735Z" fill="#003b5c" />
<path id="Vector_35" d="M196.702 23.8183C199.21 24.1212 200.998 26.4027 200.695 28.9148C200.393 31.4263 198.114 33.2167 195.606 32.9138C193.101 32.6104 191.31 30.3294 191.612 27.8173C191.915 25.3057 194.193 23.5153 196.702 23.8183Z" fill="#003b5c" />
<path id="Vector_36" d="M201.276 0.198445C203.783 0.50197 205.572 2.78286 205.269 5.29497C204.966 7.80648 202.689 9.59749 200.183 9.29396C197.675 8.99164 195.884 6.70955 196.187 4.19864C196.489 1.68653 198.767 -0.104478 201.276 0.198445Z" fill="#003b5c" />
<path id="Vector_37" d="M211.567 11.3642C214.075 11.6671 215.863 13.948 215.561 16.4607C215.261 18.9716 212.983 20.7625 210.474 20.4602C207.966 20.1567 206.178 17.8752 206.478 15.3636C206.78 12.8516 209.058 11.0606 211.567 11.3642Z" fill="#003b5c" />
</g>
</g>
<rect x="0" y="139.20000000000002" width="404.0" height="208.79999999999998" fill="#d3bd2a" clip-path="url(#clip60)" /></svg>